<?xml version="1.0" encoding="UTF-8" standalone="no"?>
<!-- Created with Inkscape (http://www.inkscape.org/) -->

<svg
   xmlns:ns1="http://www.iki.fi/pav/software/textext/"
   xmlns:dc="http://purl.org/dc/elements/1.1/"
   xmlns:cc="http://creativecommons.org/ns#"
   xmlns:rdf="http://www.w3.org/1999/02/22-rdf-syntax-ns#"
   xmlns:svg="http://www.w3.org/2000/svg"
   xmlns="http://www.w3.org/2000/svg"
   xmlns:sodipodi="http://sodipodi.sourceforge.net/DTD/sodipodi-0.dtd"
   xmlns:inkscape="http://www.inkscape.org/namespaces/inkscape"
   width="137.96844mm"
   height="20.298899mm"
   viewBox="0 0 137.96844 20.298899"
   version="1.1"
   id="svg14862"
   inkscape:version="0.92.3 (2405546, 2018-03-11)"
   sodipodi:docname="status_command.svg">
  <sodipodi:namedview
     id="base"
     pagecolor="#ffffff"
     bordercolor="#666666"
     borderopacity="1.0"
     inkscape:pageopacity="0.0"
     inkscape:pageshadow="2"
     inkscape:zoom="0.35"
     inkscape:cx="-634.69405"
     inkscape:cy="37.286018"
     inkscape:document-units="mm"
     inkscape:current-layer="layer1"
     showgrid="false"
     inkscape:window-width="1916"
     inkscape:window-height="1040"
     inkscape:window-x="0"
     inkscape:window-y="18"
     inkscape:window-maximized="0"
     fit-margin-top="0"
     fit-margin-left="0"
     fit-margin-right="0"
     fit-margin-bottom="0" />
  <defs
     id="defs14856" />
  <metadata
     id="metadata14859">
    <rdf:RDF>
      <cc:Work
         rdf:about="">
        <dc:format>image/svg+xml</dc:format>
        <dc:type
           rdf:resource="http://purl.org/dc/dcmitype/StillImage" />
        <dc:title></dc:title>
      </cc:Work>
    </rdf:RDF>
  </metadata>
  <g
     id="layer1"
     inkscape:groupmode="layer"
     inkscape:label="Layer 1"
     transform="translate(-36.015776,-138.39969)">
    <g
       id="g15613"
       ns1:jacobian_sqrt="0.493889"
       ns1:alignment="middle center"
       ns1:scale="1.40000002835"
       ns1:preamble="/home/xmrazek7/.config/inkscape/extensions/default_packages.tex"
       ns1:text="\\begin{bytefield}[bitwidth=1.75em]{16}\n    \\bitheader{0-15} \\\\\n    \\bitbox{1}{P} &amp;\n    \\bitbox{1}{I} &amp;\n    \\bitbox{1}{E} &amp;\n    \\bitbox{13}{\\textit{reserved}} \\\\\n    \\bitbox{3}{write mask} &amp;\n    \\bitbox{13}{\\textit{reserved}}\n\\end{bytefield}"
       ns1:pdfconverter="pdf2svg"
       ns1:texconverter="pdflatex"
       ns1:version="0.8.1"
       transform="matrix(0.493889,0,0,0.493889,-37.332636,78.428233)">
      <g
         id="surface1">
        <g
           id="g15412"
           style="fill:#000000;fill-opacity:1">
          <path
             id="path15410"
             transform="translate(155.735,124.802)"
             d="M 3,-1.59375 C 3,-1.953125 3,-3.3125 1.6875,-3.3125 c -1.296875,0 -1.296875,1.359375 -1.296875,1.71875 0,0.359375 0,1.703125 1.296875,1.703125 C 3,0.109375 3,-1.234375 3,-1.59375 Z M 1.6875,-0.0625 C 1.515625,-0.0625 1.09375,-0.125 0.96875,-0.625 0.890625,-0.890625 0.890625,-1.25 0.890625,-1.65625 c 0,-0.375 0,-0.71875 0.078125,-1 0.125,-0.421875 0.515625,-0.5 0.71875,-0.5 0.375,0 0.640625,0.1875 0.734375,0.546875 C 2.5,-2.359375 2.5,-1.953125 2.5,-1.65625 c 0,0.34375 0,0.75 -0.078125,1.046875 C 2.296875,-0.125 1.890625,-0.0625 1.6875,-0.0625 Z m 0,0"
             style="stroke:none;stroke-width:0"
             inkscape:connector-curvature="0" />
        </g>
        <g
           id="g15416"
           style="fill:#000000;fill-opacity:1">
          <path
             id="path15414"
             transform="translate(173.16756,124.802)"
             d="M 1.984375,-3.171875 C 1.984375,-3.3125 1.96875,-3.3125 1.796875,-3.3125 1.453125,-3 0.890625,-3 0.796875,-3 H 0.71875 v 0.21875 h 0.078125 c 0.109375,0 0.4375,-0.015625 0.734375,-0.140625 v 2.5 c 0,0.140625 0,0.203125 -0.53125,0.203125 H 0.75 V 0 c 0.265625,-0.015625 0.71875,-0.015625 1,-0.015625 0.296875,0 0.734375,0 1.015625,0.015625 v -0.21875 h -0.25 c -0.53125,0 -0.53125,-0.0625 -0.53125,-0.203125 z m 0,0"
             style="stroke:none;stroke-width:0"
             inkscape:connector-curvature="0" />
        </g>
        <g
           id="g15420"
           style="fill:#000000;fill-opacity:1">
          <path
             id="path15418"
             transform="translate(190.6051,124.802)"
             d="M 2.9375,-0.96875 H 2.71875 c 0,0.09375 -0.0625,0.40625 -0.140625,0.453125 -0.03125,0.03125 -0.453125,0.03125 -0.53125,0.03125 H 1.078125 C 1.40625,-0.71875 1.765625,-1 2.0625,-1.203125 c 0.453125,-0.3125 0.875,-0.59375 0.875,-1.125 0,-0.640625 -0.609375,-0.984375 -1.3125,-0.984375 -0.671875,0 -1.171875,0.375 -1.171875,0.875 0,0.25 0.21875,0.296875 0.296875,0.296875 0.125,0 0.28125,-0.09375 0.28125,-0.296875 0,-0.171875 -0.125,-0.28125 -0.28125,-0.28125 0.140625,-0.234375 0.4375,-0.375 0.765625,-0.375 0.484375,0 0.890625,0.28125 0.890625,0.765625 0,0.421875 -0.296875,0.75 -0.671875,1.0625 l -1.21875,1.03125 C 0.46875,-0.1875 0.453125,-0.1875 0.453125,-0.15625 V 0 h 2.3125 z m 0,0"
             style="stroke:none;stroke-width:0"
             inkscape:connector-curvature="0" />
        </g>
        <g
           id="g15424"
           style="fill:#000000;fill-opacity:1">
          <path
             id="path15422"
             transform="translate(208.03765,124.802)"
             d="m 1.640625,-1.65625 c 0.46875,0 0.765625,0.296875 0.765625,0.78125 0,0.515625 -0.3125,0.78125 -0.75,0.78125 -0.0625,0 -0.65625,0 -0.90625,-0.265625 0.203125,-0.03125 0.265625,-0.171875 0.265625,-0.296875 0,-0.1875 -0.140625,-0.3125 -0.3125,-0.3125 -0.15625,0 -0.296875,0.109375 -0.296875,0.328125 0,0.515625 0.578125,0.75 1.265625,0.75 0.8125,0 1.3125,-0.5 1.3125,-0.984375 0,-0.40625 -0.359375,-0.75 -0.921875,-0.875 0.59375,-0.203125 0.75,-0.578125 0.75,-0.859375 0,-0.40625 -0.5,-0.703125 -1.125,-0.703125 -0.625,0 -1.109375,0.25 -1.109375,0.703125 0,0.234375 0.1875,0.296875 0.28125,0.296875 0.140625,0 0.28125,-0.109375 0.28125,-0.296875 0,-0.109375 -0.0625,-0.25 -0.234375,-0.28125 C 1.109375,-3.109375 1.5625,-3.125 1.671875,-3.125 c 0.359375,0 0.609375,0.171875 0.609375,0.515625 0,0.296875 -0.1875,0.75 -0.703125,0.78125 -0.140625,0 -0.15625,0 -0.296875,0.015625 -0.046875,0 -0.109375,0 -0.109375,0.078125 0,0.078125 0.046875,0.078125 0.140625,0.078125 z m 0,0"
             style="stroke:none;stroke-width:0"
             inkscape:connector-curvature="0" />
        </g>
        <g
           id="g15428"
           style="fill:#000000;fill-opacity:1">
          <path
             id="path15426"
             transform="translate(225.47519,124.802)"
             d="m 3.078125,-0.8125 v -0.21875 h -0.625 v -2.1875 c 0,-0.125 0,-0.15625 -0.140625,-0.15625 -0.09375,0 -0.09375,0 -0.15625,0.078125 L 0.3125,-1.03125 v 0.21875 h 1.65625 v 0.390625 c 0,0.15625 0,0.203125 -0.421875,0.203125 h -0.1875 V 0 c 0.234375,-0.015625 0.5625,-0.015625 0.859375,-0.015625 0.28125,0 0.609375,0 0.84375,0.015625 V -0.21875 H 2.890625 c -0.4375,0 -0.4375,-0.046875 -0.4375,-0.203125 V -0.8125 Z m -1.0625,-2.03125 v 1.8125 h -1.46875 z m 0,0"
             style="stroke:none;stroke-width:0"
             inkscape:connector-curvature="0" />
        </g>
        <g
           id="g15432"
           style="fill:#000000;fill-opacity:1">
          <path
             id="path15430"
             transform="translate(242.90775,124.802)"
             d="m 0.984375,-2.75 c 0.25,0.0625 0.484375,0.0625 0.53125,0.0625 0.34375,0 0.59375,-0.09375 0.71875,-0.15625 0.125,-0.0625 0.46875,-0.28125 0.46875,-0.390625 0,-0.078125 -0.0625,-0.078125 -0.078125,-0.078125 -0.015625,0 -0.015625,0 -0.078125,0.015625 -0.1875,0.0625 -0.5,0.140625 -0.828125,0.140625 -0.28125,0 -0.546875,-0.046875 -0.8125,-0.140625 C 0.84375,-3.3125 0.84375,-3.3125 0.828125,-3.3125 0.75,-3.3125 0.75,-3.265625 0.75,-3.1875 v 1.5 c 0,0.09375 0,0.15625 0.109375,0.15625 0.046875,0 0.046875,-0.015625 0.09375,-0.0625 0.1875,-0.21875 0.453125,-0.328125 0.796875,-0.328125 0.28125,0 0.453125,0.15625 0.515625,0.265625 0.109375,0.171875 0.140625,0.390625 0.140625,0.640625 0,0.203125 -0.015625,0.484375 -0.21875,0.671875 -0.21875,0.234375 -0.5,0.25 -0.609375,0.25 -0.328125,0 -0.6875,-0.140625 -0.84375,-0.4375 0.203125,-0.015625 0.28125,-0.15625 0.28125,-0.28125 0,-0.15625 -0.125,-0.28125 -0.28125,-0.28125 -0.109375,0 -0.28125,0.078125 -0.28125,0.296875 0,0.5 0.484375,0.90625 1.125,0.90625 0.75,0 1.359375,-0.5 1.359375,-1.109375 0,-0.5625 -0.484375,-1.09375 -1.171875,-1.09375 -0.3125,0 -0.578125,0.078125 -0.78125,0.25 z m 0,0"
             style="stroke:none;stroke-width:0"
             inkscape:connector-curvature="0" />
        </g>
        <g
           id="g15436"
           style="fill:#000000;fill-opacity:1">
          <path
             id="path15434"
             transform="translate(260.34031,124.802)"
             d="m 0.921875,-1.640625 c 0.015625,-0.21875 0.015625,-0.625 0.1875,-0.9375 0.15625,-0.265625 0.46875,-0.546875 0.9375,-0.546875 0.09375,0 0.328125,0 0.46875,0.125 C 2.4375,-2.984375 2.3125,-2.90625 2.3125,-2.734375 c 0,0.15625 0.109375,0.265625 0.265625,0.265625 0.078125,0 0.265625,-0.046875 0.265625,-0.28125 0,-0.265625 -0.203125,-0.5625 -0.796875,-0.5625 -0.859375,0 -1.640625,0.703125 -1.640625,1.734375 0,1.1875 0.578125,1.6875 1.296875,1.6875 0.5,0 0.734375,-0.1875 0.90625,-0.328125 0.3125,-0.265625 0.375,-0.546875 0.375,-0.796875 0,-0.3125 -0.09375,-0.546875 -0.359375,-0.78125 C 2.40625,-2 2.1875,-2.140625 1.75,-2.140625 c -0.296875,0 -0.609375,0.140625 -0.828125,0.5 z m 0.78125,1.546875 C 0.9375,-0.09375 0.9375,-0.921875 0.9375,-1.125 c 0,-0.390625 0.28125,-0.84375 0.796875,-0.84375 0.265625,0 0.421875,0.0625 0.578125,0.265625 0.140625,0.1875 0.15625,0.390625 0.15625,0.671875 0,0.296875 0,0.484375 -0.171875,0.6875 -0.140625,0.15625 -0.3125,0.25 -0.59375,0.25 z m 0,0"
             style="stroke:none;stroke-width:0"
             inkscape:connector-curvature="0" />
        </g>
        <g
           id="g15440"
           style="fill:#000000;fill-opacity:1">
          <path
             id="path15438"
             transform="translate(277.77785,124.802)"
             d="m 3.109375,-2.984375 c 0.046875,-0.046875 0.046875,-0.0625 0.0625,-0.09375 v -0.125 h -1.21875 c -0.125,0 -0.859375,-0.03125 -0.9375,-0.046875 -0.125,-0.015625 -0.125,-0.0625 -0.140625,-0.125 H 0.671875 l -0.1875,1.125 H 0.6875 c 0.015625,-0.078125 0.0625,-0.390625 0.15625,-0.453125 0.03125,-0.015625 0.5,-0.03125 0.578125,-0.03125 h 1.1875 c -0.21875,0.25 -0.484375,0.515625 -0.6875,0.765625 -0.59375,0.75 -0.65625,1.46875 -0.65625,1.78125 0,0.265625 0.171875,0.296875 0.265625,0.296875 0.265625,0 0.265625,-0.25 0.265625,-0.3125 v -0.09375 c 0,-0.890625 0.1875,-1.4375 0.484375,-1.765625 z m 0,0"
             style="stroke:none;stroke-width:0"
             inkscape:connector-curvature="0" />
        </g>
        <g
           id="g15444"
           style="fill:#000000;fill-opacity:1">
          <path
             id="path15442"
             transform="translate(295.2104,124.802)"
             d="M 2.140625,-1.796875 C 2.65625,-2.015625 2.8125,-2.28125 2.8125,-2.5625 c 0,-0.515625 -0.5625,-0.75 -1.109375,-0.75 -0.625,0 -1.125,0.34375 -1.125,0.84375 0,0.453125 0.390625,0.65625 0.640625,0.796875 -0.515625,0.203125 -0.8125,0.5 -0.8125,0.90625 0,0.59375 0.65625,0.875 1.28125,0.875 0.703125,0 1.296875,-0.375 1.296875,-0.96875 0,-0.53125 -0.515625,-0.796875 -0.84375,-0.9375 z M 1.15625,-2.3125 C 0.953125,-2.421875 0.875,-2.546875 0.875,-2.671875 c 0,-0.3125 0.421875,-0.453125 0.8125,-0.453125 0.40625,0 0.8125,0.1875 0.8125,0.5625 0,0.4375 -0.5625,0.65625 -0.5625,0.65625 -0.015625,0 -0.015625,0 -0.0625,-0.03125 z m 0.28125,0.75 0.78125,0.390625 c 0.171875,0.09375 0.421875,0.234375 0.421875,0.5 0,0.40625 -0.5,0.578125 -0.9375,0.578125 C 1.25,-0.09375 0.75,-0.3125 0.75,-0.765625 0.75,-1.265625 1.28125,-1.5 1.4375,-1.5625 Z m 0,0"
             style="stroke:none;stroke-width:0"
             inkscape:connector-curvature="0" />
        </g>
        <g
           id="g15448"
           style="fill:#000000;fill-opacity:1">
          <path
             id="path15446"
             transform="translate(312.64794,124.802)"
             d="m 2.46875,-1.578125 c 0,0.3125 -0.03125,0.6875 -0.203125,0.984375 -0.15625,0.28125 -0.453125,0.5 -0.859375,0.5 -0.046875,0 -0.359375,0 -0.53125,-0.125 0.125,-0.03125 0.203125,-0.125 0.203125,-0.25 0,-0.171875 -0.109375,-0.265625 -0.265625,-0.265625 -0.078125,0 -0.265625,0.046875 -0.265625,0.28125 0,0.5625 0.734375,0.5625 0.875,0.5625 0.84375,0 1.5625,-0.71875 1.5625,-1.75 0,-1.203125 -0.578125,-1.671875 -1.265625,-1.671875 -0.5,0 -0.75,0.171875 -0.953125,0.34375 -0.296875,0.25 -0.359375,0.515625 -0.359375,0.78125 0,0.28125 0.078125,0.53125 0.34375,0.765625 0.234375,0.203125 0.46875,0.34375 0.890625,0.34375 0.203125,0 0.5625,-0.078125 0.828125,-0.5 z M 1.65625,-1.25 C 1.453125,-1.25 1.265625,-1.28125 1.078125,-1.515625 0.9375,-1.6875 0.921875,-1.90625 0.921875,-2.1875 0.921875,-2.546875 0.9375,-2.703125 1.125,-2.90625 1.203125,-2.984375 1.359375,-3.125 1.71875,-3.125 c 0.734375,0 0.734375,0.8125 0.734375,1.03125 0,0.40625 -0.296875,0.84375 -0.796875,0.84375 z m 0,0"
             style="stroke:none;stroke-width:0"
             inkscape:connector-curvature="0" />
        </g>
        <g
           id="g15454"
           style="fill:#000000;fill-opacity:1">
          <path
             id="path15450"
             transform="translate(328.38686,124.802)"
             d="M 1.984375,-3.171875 C 1.984375,-3.3125 1.96875,-3.3125 1.796875,-3.3125 1.453125,-3 0.890625,-3 0.796875,-3 H 0.71875 v 0.21875 h 0.078125 c 0.109375,0 0.4375,-0.015625 0.734375,-0.140625 v 2.5 c 0,0.140625 0,0.203125 -0.53125,0.203125 H 0.75 V 0 c 0.265625,-0.015625 0.71875,-0.015625 1,-0.015625 0.296875,0 0.734375,0 1.015625,0.015625 v -0.21875 h -0.25 c -0.53125,0 -0.53125,-0.0625 -0.53125,-0.203125 z m 0,0"
             style="stroke:none;stroke-width:0"
             inkscape:connector-curvature="0" />
          <path
             id="path15452"
             transform="translate(331.77713,124.802)"
             d="M 3,-1.59375 C 3,-1.953125 3,-3.3125 1.6875,-3.3125 c -1.296875,0 -1.296875,1.359375 -1.296875,1.71875 0,0.359375 0,1.703125 1.296875,1.703125 C 3,0.109375 3,-1.234375 3,-1.59375 Z M 1.6875,-0.0625 C 1.515625,-0.0625 1.09375,-0.125 0.96875,-0.625 0.890625,-0.890625 0.890625,-1.25 0.890625,-1.65625 c 0,-0.375 0,-0.71875 0.078125,-1 0.125,-0.421875 0.515625,-0.5 0.71875,-0.5 0.375,0 0.640625,0.1875 0.734375,0.546875 C 2.5,-2.359375 2.5,-1.953125 2.5,-1.65625 c 0,0.34375 0,0.75 -0.078125,1.046875 C 2.296875,-0.125 1.890625,-0.0625 1.6875,-0.0625 Z m 0,0"
             style="stroke:none;stroke-width:0"
             inkscape:connector-curvature="0" />
        </g>
        <g
           id="g15460"
           style="fill:#000000;fill-opacity:1">
          <path
             id="path15456"
             transform="translate(345.8224,124.802)"
             d="M 1.984375,-3.171875 C 1.984375,-3.3125 1.96875,-3.3125 1.796875,-3.3125 1.453125,-3 0.890625,-3 0.796875,-3 H 0.71875 v 0.21875 h 0.078125 c 0.109375,0 0.4375,-0.015625 0.734375,-0.140625 v 2.5 c 0,0.140625 0,0.203125 -0.53125,0.203125 H 0.75 V 0 c 0.265625,-0.015625 0.71875,-0.015625 1,-0.015625 0.296875,0 0.734375,0 1.015625,0.015625 v -0.21875 h -0.25 c -0.53125,0 -0.53125,-0.0625 -0.53125,-0.203125 z m 0,0"
             style="stroke:none;stroke-width:0"
             inkscape:connector-curvature="0" />
          <path
             id="path15458"
             transform="translate(349.21268,124.802)"
             d="M 1.984375,-3.171875 C 1.984375,-3.3125 1.96875,-3.3125 1.796875,-3.3125 1.453125,-3 0.890625,-3 0.796875,-3 H 0.71875 v 0.21875 h 0.078125 c 0.109375,0 0.4375,-0.015625 0.734375,-0.140625 v 2.5 c 0,0.140625 0,0.203125 -0.53125,0.203125 H 0.75 V 0 c 0.265625,-0.015625 0.71875,-0.015625 1,-0.015625 0.296875,0 0.734375,0 1.015625,0.015625 v -0.21875 h -0.25 c -0.53125,0 -0.53125,-0.0625 -0.53125,-0.203125 z m 0,0"
             style="stroke:none;stroke-width:0"
             inkscape:connector-curvature="0" />
        </g>
        <g
           id="g15466"
           style="fill:#000000;fill-opacity:1">
          <path
             id="path15462"
             transform="translate(363.25297,124.802)"
             d="M 1.984375,-3.171875 C 1.984375,-3.3125 1.96875,-3.3125 1.796875,-3.3125 1.453125,-3 0.890625,-3 0.796875,-3 H 0.71875 v 0.21875 h 0.078125 c 0.109375,0 0.4375,-0.015625 0.734375,-0.140625 v 2.5 c 0,0.140625 0,0.203125 -0.53125,0.203125 H 0.75 V 0 c 0.265625,-0.015625 0.71875,-0.015625 1,-0.015625 0.296875,0 0.734375,0 1.015625,0.015625 v -0.21875 h -0.25 c -0.53125,0 -0.53125,-0.0625 -0.53125,-0.203125 z m 0,0"
             style="stroke:none;stroke-width:0"
             inkscape:connector-curvature="0" />
          <path
             id="path15464"
             transform="translate(366.64324,124.802)"
             d="M 2.9375,-0.96875 H 2.71875 c 0,0.09375 -0.0625,0.40625 -0.140625,0.453125 -0.03125,0.03125 -0.453125,0.03125 -0.53125,0.03125 H 1.078125 C 1.40625,-0.71875 1.765625,-1 2.0625,-1.203125 c 0.453125,-0.3125 0.875,-0.59375 0.875,-1.125 0,-0.640625 -0.609375,-0.984375 -1.3125,-0.984375 -0.671875,0 -1.171875,0.375 -1.171875,0.875 0,0.25 0.21875,0.296875 0.296875,0.296875 0.125,0 0.28125,-0.09375 0.28125,-0.296875 0,-0.171875 -0.125,-0.28125 -0.28125,-0.28125 0.140625,-0.234375 0.4375,-0.375 0.765625,-0.375 0.484375,0 0.890625,0.28125 0.890625,0.765625 0,0.421875 -0.296875,0.75 -0.671875,1.0625 l -1.21875,1.03125 C 0.46875,-0.1875 0.453125,-0.1875 0.453125,-0.15625 V 0 h 2.3125 z m 0,0"
             style="stroke:none;stroke-width:0"
             inkscape:connector-curvature="0" />
        </g>
        <g
           id="g15472"
           style="fill:#000000;fill-opacity:1">
          <path
             id="path15468"
             transform="translate(380.68851,124.802)"
             d="M 1.984375,-3.171875 C 1.984375,-3.3125 1.96875,-3.3125 1.796875,-3.3125 1.453125,-3 0.890625,-3 0.796875,-3 H 0.71875 v 0.21875 h 0.078125 c 0.109375,0 0.4375,-0.015625 0.734375,-0.140625 v 2.5 c 0,0.140625 0,0.203125 -0.53125,0.203125 H 0.75 V 0 c 0.265625,-0.015625 0.71875,-0.015625 1,-0.015625 0.296875,0 0.734375,0 1.015625,0.015625 v -0.21875 h -0.25 c -0.53125,0 -0.53125,-0.0625 -0.53125,-0.203125 z m 0,0"
             style="stroke:none;stroke-width:0"
             inkscape:connector-curvature="0" />
          <path
             id="path15470"
             transform="translate(384.07879,124.802)"
             d="m 1.640625,-1.65625 c 0.46875,0 0.765625,0.296875 0.765625,0.78125 0,0.515625 -0.3125,0.78125 -0.75,0.78125 -0.0625,0 -0.65625,0 -0.90625,-0.265625 0.203125,-0.03125 0.265625,-0.171875 0.265625,-0.296875 0,-0.1875 -0.140625,-0.3125 -0.3125,-0.3125 -0.15625,0 -0.296875,0.109375 -0.296875,0.328125 0,0.515625 0.578125,0.75 1.265625,0.75 0.8125,0 1.3125,-0.5 1.3125,-0.984375 0,-0.40625 -0.359375,-0.75 -0.921875,-0.875 0.59375,-0.203125 0.75,-0.578125 0.75,-0.859375 0,-0.40625 -0.5,-0.703125 -1.125,-0.703125 -0.625,0 -1.109375,0.25 -1.109375,0.703125 0,0.234375 0.1875,0.296875 0.28125,0.296875 0.140625,0 0.28125,-0.109375 0.28125,-0.296875 0,-0.109375 -0.0625,-0.25 -0.234375,-0.28125 C 1.109375,-3.109375 1.5625,-3.125 1.671875,-3.125 c 0.359375,0 0.609375,0.171875 0.609375,0.515625 0,0.296875 -0.1875,0.75 -0.703125,0.78125 -0.140625,0 -0.15625,0 -0.296875,0.015625 -0.046875,0 -0.109375,0 -0.109375,0.078125 0,0.078125 0.046875,0.078125 0.140625,0.078125 z m 0,0"
             style="stroke:none;stroke-width:0"
             inkscape:connector-curvature="0" />
        </g>
        <g
           id="g15478"
           style="fill:#000000;fill-opacity:1">
          <path
             id="path15474"
             transform="translate(398.12406,124.802)"
             d="M 1.984375,-3.171875 C 1.984375,-3.3125 1.96875,-3.3125 1.796875,-3.3125 1.453125,-3 0.890625,-3 0.796875,-3 H 0.71875 v 0.21875 h 0.078125 c 0.109375,0 0.4375,-0.015625 0.734375,-0.140625 v 2.5 c 0,0.140625 0,0.203125 -0.53125,0.203125 H 0.75 V 0 c 0.265625,-0.015625 0.71875,-0.015625 1,-0.015625 0.296875,0 0.734375,0 1.015625,0.015625 v -0.21875 h -0.25 c -0.53125,0 -0.53125,-0.0625 -0.53125,-0.203125 z m 0,0"
             style="stroke:none;stroke-width:0"
             inkscape:connector-curvature="0" />
          <path
             id="path15476"
             transform="translate(401.51434,124.802)"
             d="m 3.078125,-0.8125 v -0.21875 h -0.625 v -2.1875 c 0,-0.125 0,-0.15625 -0.140625,-0.15625 -0.09375,0 -0.09375,0 -0.15625,0.078125 L 0.3125,-1.03125 v 0.21875 h 1.65625 v 0.390625 c 0,0.15625 0,0.203125 -0.421875,0.203125 h -0.1875 V 0 c 0.234375,-0.015625 0.5625,-0.015625 0.859375,-0.015625 0.28125,0 0.609375,0 0.84375,0.015625 V -0.21875 H 2.890625 c -0.4375,0 -0.4375,-0.046875 -0.4375,-0.203125 V -0.8125 Z m -1.0625,-2.03125 v 1.8125 h -1.46875 z m 0,0"
             style="stroke:none;stroke-width:0"
             inkscape:connector-curvature="0" />
        </g>
        <g
           id="g15484"
           style="fill:#000000;fill-opacity:1">
          <path
             id="path15480"
             transform="translate(415.55961,124.802)"
             d="M 1.984375,-3.171875 C 1.984375,-3.3125 1.96875,-3.3125 1.796875,-3.3125 1.453125,-3 0.890625,-3 0.796875,-3 H 0.71875 v 0.21875 h 0.078125 c 0.109375,0 0.4375,-0.015625 0.734375,-0.140625 v 2.5 c 0,0.140625 0,0.203125 -0.53125,0.203125 H 0.75 V 0 c 0.265625,-0.015625 0.71875,-0.015625 1,-0.015625 0.296875,0 0.734375,0 1.015625,0.015625 v -0.21875 h -0.25 c -0.53125,0 -0.53125,-0.0625 -0.53125,-0.203125 z m 0,0"
             style="stroke:none;stroke-width:0"
             inkscape:connector-curvature="0" />
          <path
             id="path15482"
             transform="translate(418.94988,124.802)"
             d="m 0.984375,-2.75 c 0.25,0.0625 0.484375,0.0625 0.53125,0.0625 0.34375,0 0.59375,-0.09375 0.71875,-0.15625 0.125,-0.0625 0.46875,-0.28125 0.46875,-0.390625 0,-0.078125 -0.0625,-0.078125 -0.078125,-0.078125 -0.015625,0 -0.015625,0 -0.078125,0.015625 -0.1875,0.0625 -0.5,0.140625 -0.828125,0.140625 -0.28125,0 -0.546875,-0.046875 -0.8125,-0.140625 C 0.84375,-3.3125 0.84375,-3.3125 0.828125,-3.3125 0.75,-3.3125 0.75,-3.265625 0.75,-3.1875 v 1.5 c 0,0.09375 0,0.15625 0.109375,0.15625 0.046875,0 0.046875,-0.015625 0.09375,-0.0625 0.1875,-0.21875 0.453125,-0.328125 0.796875,-0.328125 0.28125,0 0.453125,0.15625 0.515625,0.265625 0.109375,0.171875 0.140625,0.390625 0.140625,0.640625 0,0.203125 -0.015625,0.484375 -0.21875,0.671875 -0.21875,0.234375 -0.5,0.25 -0.609375,0.25 -0.328125,0 -0.6875,-0.140625 -0.84375,-0.4375 0.203125,-0.015625 0.28125,-0.15625 0.28125,-0.28125 0,-0.15625 -0.125,-0.28125 -0.28125,-0.28125 -0.109375,0 -0.28125,0.078125 -0.28125,0.296875 0,0.5 0.484375,0.90625 1.125,0.90625 0.75,0 1.359375,-0.5 1.359375,-1.109375 0,-0.5625 -0.484375,-1.09375 -1.171875,-1.09375 -0.3125,0 -0.578125,0.078125 -0.78125,0.25 z m 0,0"
             style="stroke:none;stroke-width:0"
             inkscape:connector-curvature="0" />
        </g>
        <g
           id="g15488"
           style="fill:#000000;fill-opacity:1">
          <path
             id="path15486"
             transform="translate(154.04,139.995)"
             d="m 2.265625,-3.15625 h 1.6875 c 1.1875,0 2.265625,-0.796875 2.265625,-1.796875 C 6.21875,-5.9375 5.234375,-6.8125 3.875,-6.8125 H 0.34375 V -6.5 h 0.25 c 0.765625,0 0.78125,0.109375 0.78125,0.46875 v 5.25 c 0,0.359375 -0.015625,0.46875 -0.78125,0.46875 h -0.25 V 0 c 0.359375,-0.03125 1.09375,-0.03125 1.46875,-0.03125 0.375,0 1.125,0 1.484375,0.03125 v -0.3125 h -0.25 c -0.765625,0 -0.78125,-0.109375 -0.78125,-0.46875 z m -0.03125,-0.25 v -2.6875 C 2.234375,-6.4375 2.25,-6.5 2.71875,-6.5 h 0.890625 c 1.578125,0 1.578125,1.0625 1.578125,1.546875 0,0.46875 0,1.546875 -1.578125,1.546875 z m 0,0"
             style="stroke:none;stroke-width:0"
             inkscape:connector-curvature="0" />
        </g>
        <path
           id="path15490"
           transform="matrix(1,0,0,-1,148.712,128.012)"
           d="M -0.0010625,2.8125e-4 H 17.436438"
           style="fill:none;stroke:#000000;stroke-width:0.398;stroke-linecap:butt;stroke-linejoin:miter;stroke-miterlimit:10;stroke-opacity:1"
           inkscape:connector-curvature="0" />
        <path
           id="path15492"
           transform="matrix(1,0,0,-1,148.712,145.17)"
           d="M -0.0010625,-0.001875 H 17.436438"
           style="fill:none;stroke:#000000;stroke-width:0.398;stroke-linecap:butt;stroke-linejoin:miter;stroke-miterlimit:10;stroke-opacity:1"
           inkscape:connector-curvature="0" />
        <path
           id="path15494"
           transform="matrix(1,0,0,-1,148.712,145.17)"
           d="M -0.0010625,-0.001875 V 17.158281"
           style="fill:none;stroke:#000000;stroke-width:0.398;stroke-linecap:butt;stroke-linejoin:miter;stroke-miterlimit:10;stroke-opacity:1"
           inkscape:connector-curvature="0" />
        <path
           id="path15496"
           transform="matrix(1,0,0,-1,166.147,145.17)"
           d="M 0.0014375,-0.001875 V 17.158281"
           style="fill:none;stroke:#000000;stroke-width:0.398;stroke-linecap:butt;stroke-linejoin:miter;stroke-miterlimit:10;stroke-opacity:1"
           inkscape:connector-curvature="0" />
        <g
           id="g15500"
           style="fill:#000000;fill-opacity:1">
          <path
             id="path15498"
             transform="translate(173.065,139.995)"
             d="M 2.25,-6.03125 C 2.25,-6.390625 2.265625,-6.5 3.0625,-6.5 h 0.25 v -0.3125 c -0.34375,0.03125 -1.125,0.03125 -1.515625,0.03125 -0.375,0 -1.171875,0 -1.515625,-0.03125 V -6.5 h 0.25 c 0.796875,0 0.828125,0.109375 0.828125,0.46875 v 5.25 c 0,0.359375 -0.03125,0.46875 -0.828125,0.46875 h -0.25 V 0 c 0.34375,-0.03125 1.140625,-0.03125 1.515625,-0.03125 0.390625,0 1.171875,0 1.515625,0.03125 v -0.3125 h -0.25 C 2.265625,-0.3125 2.25,-0.421875 2.25,-0.78125 Z m 0,0"
             style="stroke:none;stroke-width:0"
             inkscape:connector-curvature="0" />
        </g>
        <path
           id="path15502"
           transform="matrix(1,0,0,-1,166.147,128.012)"
           d="M 0.0014375,2.8125e-4 H 17.435031"
           style="fill:none;stroke:#000000;stroke-width:0.398;stroke-linecap:butt;stroke-linejoin:miter;stroke-miterlimit:10;stroke-opacity:1"
           inkscape:connector-curvature="0" />
        <path
           id="path15504"
           transform="matrix(1,0,0,-1,166.147,145.17)"
           d="M 0.0014375,-0.001875 H 17.435031"
           style="fill:none;stroke:#000000;stroke-width:0.398;stroke-linecap:butt;stroke-linejoin:miter;stroke-miterlimit:10;stroke-opacity:1"
           inkscape:connector-curvature="0" />
        <path
           id="path15506"
           transform="matrix(1,0,0,-1,166.147,145.17)"
           d="M 0.0014375,-0.001875 V 17.158281"
           style="fill:none;stroke:#000000;stroke-width:0.398;stroke-linecap:butt;stroke-linejoin:miter;stroke-miterlimit:10;stroke-opacity:1"
           inkscape:connector-curvature="0" />
        <path
           id="path15508"
           transform="matrix(1,0,0,-1,183.582,145.17)"
           d="M 3.125e-5,-0.001875 V 17.158281"
           style="fill:none;stroke:#000000;stroke-width:0.398;stroke-linecap:butt;stroke-linejoin:miter;stroke-miterlimit:10;stroke-opacity:1"
           inkscape:connector-curvature="0" />
        <g
           id="g15512"
           style="fill:#000000;fill-opacity:1">
          <path
             id="path15510"
             transform="translate(188.909,139.995)"
             d="m 1.359375,-0.78125 c 0,0.359375 -0.03125,0.46875 -0.796875,0.46875 H 0.328125 V 0 h 5.75 L 6.5,-2.578125 H 6.25 C 6,-1.03125 5.765625,-0.3125 4.0625,-0.3125 H 2.734375 C 2.265625,-0.3125 2.25,-0.375 2.25,-0.703125 V -3.375 h 0.890625 c 0.96875,0 1.078125,0.328125 1.078125,1.171875 h 0.25 V -4.84375 h -0.25 c 0,0.859375 -0.109375,1.171875 -1.078125,1.171875 H 2.25 v -2.40625 c 0,-0.328125 0.015625,-0.390625 0.484375,-0.390625 h 1.28125 c 1.53125,0 1.796875,0.546875 1.953125,1.9375 h 0.25 l -0.28125,-2.25 H 0.328125 v 0.3125 H 0.5625 c 0.765625,0 0.796875,0.109375 0.796875,0.46875 z m 0,0"
             style="stroke:none;stroke-width:0"
             inkscape:connector-curvature="0" />
        </g>
        <path
           id="path15514"
           transform="matrix(1,0,0,-1,183.582,128.012)"
           d="M 3.125e-5,2.8125e-4 H 17.433625"
           style="fill:none;stroke:#000000;stroke-width:0.398;stroke-linecap:butt;stroke-linejoin:miter;stroke-miterlimit:10;stroke-opacity:1"
           inkscape:connector-curvature="0" />
        <path
           id="path15516"
           transform="matrix(1,0,0,-1,183.582,145.17)"
           d="M 3.125e-5,-0.001875 H 17.433625"
           style="fill:none;stroke:#000000;stroke-width:0.398;stroke-linecap:butt;stroke-linejoin:miter;stroke-miterlimit:10;stroke-opacity:1"
           inkscape:connector-curvature="0" />
        <path
           id="path15518"
           transform="matrix(1,0,0,-1,183.582,145.17)"
           d="M 3.125e-5,-0.001875 V 17.158281"
           style="fill:none;stroke:#000000;stroke-width:0.398;stroke-linecap:butt;stroke-linejoin:miter;stroke-miterlimit:10;stroke-opacity:1"
           inkscape:connector-curvature="0" />
        <path
           id="path15520"
           transform="matrix(1,0,0,-1,201.016,145.17)"
           d="M -3.75e-4,-0.001875 V 17.158281"
           style="fill:none;stroke:#000000;stroke-width:0.398;stroke-linecap:butt;stroke-linejoin:miter;stroke-miterlimit:10;stroke-opacity:1"
           inkscape:connector-curvature="0" />
        <g
           id="g15524"
           style="fill:#000000;fill-opacity:1">
          <path
             id="path15522"
             transform="translate(296.387,140.05)"
             d="m 2.578125,-2.875 c 0,-0.03125 0.453125,-1.3125 1.3125,-1.3125 0.046875,0 0.328125,0 0.53125,0.140625 C 4.0625,-3.9375 4.03125,-3.625 4.03125,-3.5625 c 0,0.125 0.09375,0.3125 0.359375,0.3125 0.171875,0 0.484375,-0.140625 0.484375,-0.53125 0,-0.515625 -0.640625,-0.625 -0.984375,-0.625 -0.6875,0 -1.046875,0.5 -1.203125,0.71875 -0.109375,-0.53125 -0.5,-0.71875 -0.828125,-0.71875 -0.359375,0 -0.546875,0.234375 -0.71875,0.53125 -0.1875,0.390625 -0.3125,0.984375 -0.3125,1 0,0.109375 0.09375,0.109375 0.15625,0.109375 0.125,0 0.125,-0.015625 0.1875,-0.234375 0.171875,-0.703125 0.359375,-1.1875 0.671875,-1.1875 0.265625,0 0.265625,0.296875 0.265625,0.40625 0,0.15625 -0.03125,0.34375 -0.078125,0.5 l -0.75,2.984375 c -0.015625,0.0625 -0.03125,0.125 -0.03125,0.140625 0,0.109375 0.078125,0.265625 0.28125,0.265625 0.296875,0 0.375,-0.28125 0.390625,-0.375 z m 0,0"
             style="stroke:none;stroke-width:0"
             inkscape:connector-curvature="0" />
        </g>
        <g
           id="g15538"
           style="fill:#000000;fill-opacity:1">
          <path
             id="path15526"
             transform="translate(300.08014,140.05)"
             d="m 2.375,-2.296875 c 0.3125,0 0.96875,-0.03125 1.453125,-0.21875 0.78125,-0.328125 0.78125,-0.96875 0.78125,-1.046875 0,-0.453125 -0.359375,-0.84375 -1,-0.84375 -1.046875,0 -2.46875,1 -2.46875,2.765625 0,0.90625 0.46875,1.75 1.421875,1.75 1.28125,0 2.109375,-1 2.109375,-1.140625 0,-0.0625 -0.09375,-0.171875 -0.171875,-0.171875 -0.03125,0 -0.046875,0.015625 -0.125,0.109375 -0.734375,0.9375 -1.625,0.984375 -1.796875,0.984375 -0.640625,0 -0.75,-0.703125 -0.75,-1.09375 0,-0.375 0.09375,-0.828125 0.171875,-1.09375 z m -0.328125,-0.21875 c 0.4375,-1.640625 1.46875,-1.671875 1.5625,-1.671875 0.390625,0 0.625,0.265625 0.625,0.609375 0,1.0625 -1.640625,1.0625 -1.96875,1.0625 z m 0,0"
             style="stroke:none;stroke-width:0"
             inkscape:connector-curvature="0" />
          <path
             id="path15528"
             transform="translate(304.66293,140.05)"
             d="m 2.46875,-1.96875 c 0.4375,0.109375 0.875,0.203125 0.875,0.75 0,0.3125 -0.265625,1.109375 -1.296875,1.109375 -0.21875,0 -0.796875,-0.046875 -0.953125,-0.5625 0.515625,-0.046875 0.515625,-0.46875 0.515625,-0.484375 0,-0.1875 -0.140625,-0.3125 -0.34375,-0.3125 -0.234375,0 -0.515625,0.15625 -0.515625,0.609375 0,0.609375 0.578125,0.96875 1.296875,0.96875 1.484375,0 1.875,-1.21875 1.875,-1.671875 0,-0.875 -0.78125,-1.046875 -1.1875,-1.140625 -0.28125,-0.0625 -0.640625,-0.140625 -0.640625,-0.5625 0,-0.25 0.203125,-0.921875 1,-0.921875 0.28125,0 0.640625,0.09375 0.75,0.484375 -0.3125,0.046875 -0.390625,0.3125 -0.390625,0.40625 0,0.109375 0.0625,0.28125 0.296875,0.28125 0.171875,0 0.421875,-0.109375 0.421875,-0.546875 0,-0.453125 -0.40625,-0.84375 -1.0625,-0.84375 -1.171875,0 -1.578125,0.953125 -1.578125,1.46875 0,0.78125 0.65625,0.90625 0.9375,0.96875 z m 0,0"
             style="stroke:none;stroke-width:0"
             inkscape:connector-curvature="0" />
          <path
             id="path15530"
             transform="translate(308.73664,140.05)"
             d="m 2.375,-2.296875 c 0.3125,0 0.96875,-0.03125 1.453125,-0.21875 0.78125,-0.328125 0.78125,-0.96875 0.78125,-1.046875 0,-0.453125 -0.359375,-0.84375 -1,-0.84375 -1.046875,0 -2.46875,1 -2.46875,2.765625 0,0.90625 0.46875,1.75 1.421875,1.75 1.28125,0 2.109375,-1 2.109375,-1.140625 0,-0.0625 -0.09375,-0.171875 -0.171875,-0.171875 -0.03125,0 -0.046875,0.015625 -0.125,0.109375 -0.734375,0.9375 -1.625,0.984375 -1.796875,0.984375 -0.640625,0 -0.75,-0.703125 -0.75,-1.09375 0,-0.375 0.09375,-0.828125 0.171875,-1.09375 z m -0.328125,-0.21875 c 0.4375,-1.640625 1.46875,-1.671875 1.5625,-1.671875 0.390625,0 0.625,0.265625 0.625,0.609375 0,1.0625 -1.640625,1.0625 -1.96875,1.0625 z m 0,0"
             style="stroke:none;stroke-width:0"
             inkscape:connector-curvature="0" />
          <path
             id="path15532"
             transform="translate(313.31943,140.05)"
             d="m 2.578125,-2.875 c 0,-0.03125 0.453125,-1.3125 1.3125,-1.3125 0.046875,0 0.328125,0 0.53125,0.140625 C 4.0625,-3.9375 4.03125,-3.625 4.03125,-3.5625 c 0,0.125 0.09375,0.3125 0.359375,0.3125 0.171875,0 0.484375,-0.140625 0.484375,-0.53125 0,-0.515625 -0.640625,-0.625 -0.984375,-0.625 -0.6875,0 -1.046875,0.5 -1.203125,0.71875 -0.109375,-0.53125 -0.5,-0.71875 -0.828125,-0.71875 -0.359375,0 -0.546875,0.234375 -0.71875,0.53125 -0.1875,0.390625 -0.3125,0.984375 -0.3125,1 0,0.109375 0.09375,0.109375 0.15625,0.109375 0.125,0 0.125,-0.015625 0.1875,-0.234375 0.171875,-0.703125 0.359375,-1.1875 0.671875,-1.1875 0.265625,0 0.265625,0.296875 0.265625,0.40625 0,0.15625 -0.03125,0.34375 -0.078125,0.5 l -0.75,2.984375 c -0.015625,0.0625 -0.03125,0.125 -0.03125,0.140625 0,0.109375 0.078125,0.265625 0.28125,0.265625 0.296875,0 0.375,-0.28125 0.390625,-0.375 z m 0,0"
             style="stroke:none;stroke-width:0"
             inkscape:connector-curvature="0" />
          <path
             id="path15534"
             transform="translate(317.52066,140.05)"
             d="m 4.921875,-3.75 c 0,-0.34375 -0.125,-0.65625 -0.421875,-0.65625 -0.21875,0 -0.46875,0.234375 -0.46875,0.453125 0,0.140625 0.0625,0.203125 0.125,0.28125 0.234375,0.25 0.265625,0.578125 0.265625,0.78125 0,0.28125 -0.46875,2.78125 -1.609375,2.78125 -0.546875,0 -0.65625,-0.5 -0.65625,-0.828125 0,-0.578125 0.328125,-1.4375 0.59375,-2.15625 0.046875,-0.171875 0.109375,-0.3125 0.109375,-0.5 0,-0.5 -0.328125,-0.8125 -0.75,-0.8125 -0.9375,0 -1.28125,1.46875 -1.28125,1.53125 0,0.109375 0.09375,0.109375 0.15625,0.109375 0.125,0 0.125,-0.03125 0.171875,-0.171875 0.078125,-0.296875 0.34375,-1.25 0.921875,-1.25 0.109375,0 0.21875,0.03125 0.21875,0.296875 0,0.234375 -0.09375,0.5 -0.234375,0.890625 -0.3125,0.84375 -0.5,1.4375 -0.5,1.90625 0,0.921875 0.625,1.203125 1.21875,1.203125 1.671875,0 2.140625,-3.59375 2.140625,-3.859375 z m 0,0"
             style="stroke:none;stroke-width:0"
             inkscape:connector-curvature="0" />
          <path
             id="path15536"
             transform="translate(322.10346,140.05)"
             d="m 2.375,-2.296875 c 0.3125,0 0.96875,-0.03125 1.453125,-0.21875 0.78125,-0.328125 0.78125,-0.96875 0.78125,-1.046875 0,-0.453125 -0.359375,-0.84375 -1,-0.84375 -1.046875,0 -2.46875,1 -2.46875,2.765625 0,0.90625 0.46875,1.75 1.421875,1.75 1.28125,0 2.109375,-1 2.109375,-1.140625 0,-0.0625 -0.09375,-0.171875 -0.171875,-0.171875 -0.03125,0 -0.046875,0.015625 -0.125,0.109375 -0.734375,0.9375 -1.625,0.984375 -1.796875,0.984375 -0.640625,0 -0.75,-0.703125 -0.75,-1.09375 0,-0.375 0.09375,-0.828125 0.171875,-1.09375 z m -0.328125,-0.21875 c 0.4375,-1.640625 1.46875,-1.671875 1.5625,-1.671875 0.390625,0 0.625,0.265625 0.625,0.609375 0,1.0625 -1.640625,1.0625 -1.96875,1.0625 z m 0,0"
             style="stroke:none;stroke-width:0"
             inkscape:connector-curvature="0" />
        </g>
        <g
           id="g15542"
           style="fill:#000000;fill-opacity:1">
          <path
             id="path15540"
             transform="translate(326.17816,140.05)"
             d="m 5.546875,-6.671875 c 0.015625,-0.03125 0.03125,-0.109375 0.03125,-0.125 0,-0.09375 -0.0625,-0.125 -0.140625,-0.125 -0.03125,0 -0.125,0.015625 -0.15625,0.03125 L 4.296875,-6.8125 c -0.125,0 -0.234375,0.015625 -0.234375,0.203125 C 4.0625,-6.5 4.171875,-6.5 4.3125,-6.5 c 0.46875,0 0.5,0.0625 0.5,0.171875 0,0.03125 -0.03125,0.15625 -0.03125,0.171875 l -0.578125,2.328125 c -0.15625,-0.3125 -0.421875,-0.578125 -0.84375,-0.578125 -1.109375,0 -2.28125,1.515625 -2.28125,2.96875 0,0.84375 0.453125,1.546875 1.203125,1.546875 0.359375,0 0.796875,-0.203125 1.203125,-0.703125 0.109375,0.5 0.46875,0.703125 0.828125,0.703125 0.359375,0 0.578125,-0.25 0.71875,-0.5625 0.1875,-0.375 0.296875,-0.953125 0.296875,-0.96875 0,-0.109375 -0.078125,-0.109375 -0.140625,-0.109375 -0.125,0 -0.140625,0.015625 -0.1875,0.234375 -0.140625,0.5625 -0.328125,1.1875 -0.671875,1.1875 -0.265625,0 -0.265625,-0.265625 -0.265625,-0.40625 0,-0.078125 0,-0.21875 0.0625,-0.46875 z M 3.53125,-1.21875 C 3.453125,-0.90625 2.84375,-0.109375 2.296875,-0.109375 1.828125,-0.109375 1.75,-0.703125 1.75,-1 1.75,-1.5 2.0625,-2.65625 2.25,-3.078125 2.5,-3.6875 2.953125,-4.1875 3.359375,-4.1875 c 0.078125,0 0.3125,0.015625 0.484375,0.296875 0.109375,0.15625 0.203125,0.4375 0.203125,0.625 0,0.03125 -0.015625,0.078125 -0.03125,0.140625 z m 0,0"
             style="stroke:none;stroke-width:0"
             inkscape:connector-curvature="0" />
        </g>
        <path
           id="path15544"
           transform="matrix(1,0,0,-1,201.016,128.012)"
           d="M -3.75e-4,2.8125e-4 H 226.64806"
           style="fill:none;stroke:#000000;stroke-width:0.398;stroke-linecap:butt;stroke-linejoin:miter;stroke-miterlimit:10;stroke-opacity:1"
           inkscape:connector-curvature="0" />
        <path
           id="path15546"
           transform="matrix(1,0,0,-1,201.016,145.17)"
           d="M -3.75e-4,-0.001875 H 226.64806"
           style="fill:none;stroke:#000000;stroke-width:0.398;stroke-linecap:butt;stroke-linejoin:miter;stroke-miterlimit:10;stroke-opacity:1"
           inkscape:connector-curvature="0" />
        <path
           id="path15548"
           transform="matrix(1,0,0,-1,201.016,145.17)"
           d="M -3.75e-4,-0.001875 V 17.158281"
           style="fill:none;stroke:#000000;stroke-width:0.398;stroke-linecap:butt;stroke-linejoin:miter;stroke-miterlimit:10;stroke-opacity:1"
           inkscape:connector-curvature="0" />
        <path
           id="path15550"
           transform="matrix(1,0,0,-1,427.666,145.17)"
           d="M -0.0019375,-0.001875 V 17.158281"
           style="fill:none;stroke:#000000;stroke-width:0.398;stroke-linecap:butt;stroke-linejoin:miter;stroke-miterlimit:10;stroke-opacity:1"
           inkscape:connector-curvature="0" />
        <g
           id="g15562"
           style="fill:#000000;fill-opacity:1">
          <path
             id="path15552"
             transform="translate(150.885,157.208)"
             d="m 6.171875,-3.34375 c 0.171875,-0.5 0.484375,-0.640625 0.84375,-0.640625 v -0.3125 C 6.78125,-4.28125 6.5,-4.265625 6.28125,-4.265625 c -0.296875,0 -0.734375,-0.015625 -0.921875,-0.03125 v 0.3125 c 0.359375,0 0.578125,0.1875 0.578125,0.46875 0,0.0625 0,0.09375 -0.0625,0.21875 L 4.96875,-0.75 3.984375,-3.53125 C 3.953125,-3.65625 3.9375,-3.671875 3.9375,-3.71875 c 0,-0.265625 0.390625,-0.265625 0.59375,-0.265625 v -0.3125 c -0.296875,0.015625 -0.796875,0.03125 -1.046875,0.03125 -0.296875,0 -0.578125,-0.015625 -0.875,-0.03125 v 0.3125 c 0.359375,0 0.515625,0.015625 0.625,0.140625 0.046875,0.0625 0.15625,0.359375 0.21875,0.546875 L 2.609375,-0.875 1.65625,-3.53125 C 1.609375,-3.65625 1.609375,-3.671875 1.609375,-3.71875 1.609375,-3.984375 2,-3.984375 2.1875,-3.984375 v -0.3125 c -0.296875,0.015625 -0.859375,0.03125 -1.078125,0.03125 -0.046875,0 -0.578125,-0.015625 -0.9375,-0.03125 v 0.3125 c 0.5,0 0.625,0.03125 0.75,0.34375 l 1.25,3.53125 C 2.21875,0.03125 2.25,0.109375 2.375,0.109375 c 0.140625,0 0.15625,-0.0625 0.203125,-0.203125 l 1.015625,-2.8125 1.015625,2.828125 c 0.03125,0.109375 0.0625,0.1875 0.203125,0.1875 0.125,0 0.15625,-0.09375 0.1875,-0.1875 z m 0,0"
             style="stroke:none;stroke-width:0"
             inkscape:connector-curvature="0" />
          <path
             id="path15554"
             transform="translate(158.07999,157.208)"
             d="M 1.671875,-3.3125 V -4.40625 L 0.28125,-4.296875 v 0.3125 c 0.703125,0 0.78125,0.0625 0.78125,0.5625 V -0.75 c 0,0.4375 -0.109375,0.4375 -0.78125,0.4375 V 0 c 0.390625,-0.015625 0.859375,-0.03125 1.140625,-0.03125 0.390625,0 0.859375,0 1.265625,0.03125 V -0.3125 H 2.46875 c -0.734375,0 -0.75,-0.109375 -0.75,-0.46875 V -2.3125 c 0,-0.984375 0.421875,-1.875 1.171875,-1.875 0.0625,0 0.09375,0 0.109375,0.015625 -0.03125,0 -0.234375,0.125 -0.234375,0.390625 0,0.265625 0.21875,0.421875 0.4375,0.421875 0.171875,0 0.421875,-0.125 0.421875,-0.4375 0,-0.3125 -0.3125,-0.609375 -0.734375,-0.609375 -0.734375,0 -1.09375,0.671875 -1.21875,1.09375 z m 0,0"
             style="stroke:none;stroke-width:0"
             inkscape:connector-curvature="0" />
          <path
             id="path15556"
             transform="translate(161.98234,157.208)"
             d="M 1.765625,-4.40625 0.375,-4.296875 v 0.3125 c 0.640625,0 0.734375,0.0625 0.734375,0.546875 V -0.75 c 0,0.4375 -0.109375,0.4375 -0.78125,0.4375 V 0 C 0.640625,-0.015625 1.1875,-0.03125 1.421875,-0.03125 1.78125,-0.03125 2.125,-0.015625 2.46875,0 v -0.3125 c -0.671875,0 -0.703125,-0.046875 -0.703125,-0.4375 z m 0.03125,-1.734375 c 0,-0.3125 -0.234375,-0.53125 -0.515625,-0.53125 -0.3125,0 -0.53125,0.265625 -0.53125,0.53125 0,0.265625 0.21875,0.53125 0.53125,0.53125 0.28125,0 0.515625,-0.21875 0.515625,-0.53125 z m 0,0"
             style="stroke:none;stroke-width:0"
             inkscape:connector-curvature="0" />
          <path
             id="path15558"
             transform="translate(164.74995,157.208)"
             d="m 1.71875,-3.984375 h 1.4375 v -0.3125 H 1.71875 V -6.125 h -0.25 c 0,0.8125 -0.296875,1.875 -1.28125,1.921875 v 0.21875 h 0.84375 v 2.75 c 0,1.21875 0.9375,1.34375 1.296875,1.34375 0.703125,0 0.984375,-0.703125 0.984375,-1.34375 v -0.5625 h -0.25 V -1.25 c 0,0.734375 -0.296875,1.109375 -0.671875,1.109375 -0.671875,0 -0.671875,-0.90625 -0.671875,-1.078125 z m 0,0"
             style="stroke:none;stroke-width:0"
             inkscape:connector-curvature="0" />
          <path
             id="path15560"
             transform="translate(168.62441,157.208)"
             d="M 1.109375,-2.515625 C 1.171875,-4 2.015625,-4.25 2.359375,-4.25 c 1.015625,0 1.125,1.34375 1.125,1.734375 z m 0,0.21875 h 2.78125 c 0.21875,0 0.25,0 0.25,-0.21875 0,-0.984375 -0.546875,-1.953125 -1.78125,-1.953125 -1.15625,0 -2.078125,1.03125 -2.078125,2.28125 0,1.328125 1.046875,2.296875 2.1875,2.296875 C 3.6875,0.109375 4.140625,-1 4.140625,-1.1875 4.140625,-1.28125 4.0625,-1.3125 4,-1.3125 c -0.078125,0 -0.109375,0.0625 -0.125,0.140625 -0.34375,1.03125 -1.25,1.03125 -1.34375,1.03125 -0.5,0 -0.890625,-0.296875 -1.125,-0.671875 -0.296875,-0.46875 -0.296875,-1.125 -0.296875,-1.484375 z m 0,0"
             style="stroke:none;stroke-width:0"
             inkscape:connector-curvature="0" />
        </g>
        <g
           id="g15572"
           style="fill:#000000;fill-opacity:1">
          <path
             id="path15564"
             transform="translate(176.36933,157.208)"
             d="M 1.09375,-3.421875 V -0.75 c 0,0.4375 -0.109375,0.4375 -0.78125,0.4375 V 0 c 0.359375,-0.015625 0.859375,-0.03125 1.140625,-0.03125 0.25,0 0.765625,0.015625 1.109375,0.03125 v -0.3125 c -0.671875,0 -0.78125,0 -0.78125,-0.4375 V -2.59375 C 1.78125,-3.625 2.5,-4.1875 3.125,-4.1875 c 0.640625,0 0.75,0.53125 0.75,1.109375 V -0.75 c 0,0.4375 -0.109375,0.4375 -0.78125,0.4375 V 0 c 0.34375,-0.015625 0.859375,-0.03125 1.125,-0.03125 0.25,0 0.78125,0.015625 1.109375,0.03125 v -0.3125 c -0.65625,0 -0.765625,0 -0.765625,-0.4375 v -1.84375 c 0,-1.03125 0.703125,-1.59375 1.34375,-1.59375 0.625,0 0.734375,0.53125 0.734375,1.109375 V -0.75 c 0,0.4375 -0.109375,0.4375 -0.78125,0.4375 V 0 c 0.34375,-0.015625 0.859375,-0.03125 1.125,-0.03125 0.265625,0 0.78125,0.015625 1.125,0.03125 v -0.3125 c -0.515625,0 -0.765625,0 -0.78125,-0.296875 v -1.90625 c 0,-0.859375 0,-1.15625 -0.3125,-1.515625 -0.140625,-0.171875 -0.46875,-0.375 -1.046875,-0.375 -0.828125,0 -1.28125,0.59375 -1.4375,0.984375 C 4.390625,-4.296875 3.65625,-4.40625 3.203125,-4.40625 2.46875,-4.40625 2,-3.984375 1.71875,-3.359375 V -4.40625 L 0.3125,-4.296875 v 0.3125 c 0.703125,0 0.78125,0.0625 0.78125,0.5625 z m 0,0"
             style="stroke:none;stroke-width:0"
             inkscape:connector-curvature="0" />
          <path
             id="path15566"
             transform="translate(184.67116,157.208)"
             d="m 3.3125,-0.75 c 0.046875,0.390625 0.3125,0.8125 0.78125,0.8125 0.21875,0 0.828125,-0.140625 0.828125,-0.953125 v -0.5625 h -0.25 v 0.5625 c 0,0.578125 -0.25,0.640625 -0.359375,0.640625 -0.328125,0 -0.375,-0.453125 -0.375,-0.5 v -1.984375 c 0,-0.421875 0,-0.8125 -0.359375,-1.1875 C 3.1875,-4.3125 2.6875,-4.46875 2.21875,-4.46875 c -0.828125,0 -1.515625,0.46875 -1.515625,1.125 0,0.296875 0.203125,0.46875 0.46875,0.46875 0.28125,0 0.453125,-0.203125 0.453125,-0.453125 0,-0.125 -0.046875,-0.453125 -0.515625,-0.453125 C 1.390625,-4.140625 1.875,-4.25 2.1875,-4.25 c 0.5,0 1.0625,0.390625 1.0625,1.28125 v 0.359375 c -0.515625,0.03125 -1.203125,0.0625 -1.828125,0.359375 -0.75,0.34375 -1,0.859375 -1,1.296875 0,0.8125 0.96875,1.0625 1.59375,1.0625 0.65625,0 1.109375,-0.40625 1.296875,-0.859375 z M 3.25,-2.390625 v 1 c 0,0.9375 -0.71875,1.28125 -1.171875,1.28125 -0.484375,0 -0.890625,-0.34375 -0.890625,-0.84375 0,-0.546875 0.421875,-1.375 2.0625,-1.4375 z m 0,0"
             style="stroke:none;stroke-width:0"
             inkscape:connector-curvature="0" />
          <path
             id="path15568"
             transform="translate(189.65246,157.208)"
             d="m 2.078125,-1.9375 c 0.21875,0.046875 1.03125,0.203125 1.03125,0.921875 0,0.5 -0.34375,0.90625 -1.125,0.90625 -0.84375,0 -1.203125,-0.5625 -1.390625,-1.421875 C 0.5625,-1.65625 0.5625,-1.6875 0.453125,-1.6875 c -0.125,0 -0.125,0.0625 -0.125,0.234375 V -0.125 c 0,0.171875 0,0.234375 0.109375,0.234375 0.046875,0 0.0625,-0.015625 0.25,-0.203125 0.015625,-0.015625 0.015625,-0.03125 0.203125,-0.21875 0.4375,0.40625 0.890625,0.421875 1.09375,0.421875 1.140625,0 1.609375,-0.671875 1.609375,-1.390625 0,-0.515625 -0.296875,-0.828125 -0.421875,-0.9375 C 2.84375,-2.546875 2.453125,-2.625 2.03125,-2.703125 1.46875,-2.8125 0.8125,-2.9375 0.8125,-3.515625 c 0,-0.359375 0.25,-0.765625 1.109375,-0.765625 1.09375,0 1.15625,0.90625 1.171875,1.203125 0,0.09375 0.09375,0.09375 0.109375,0.09375 0.140625,0 0.140625,-0.046875 0.140625,-0.234375 v -1.015625 c 0,-0.15625 0,-0.234375 -0.109375,-0.234375 -0.046875,0 -0.078125,0 -0.203125,0.125 -0.03125,0.03125 -0.125,0.125 -0.171875,0.15625 -0.375,-0.28125 -0.78125,-0.28125 -0.9375,-0.28125 -1.21875,0 -1.59375,0.671875 -1.59375,1.234375 0,0.34375 0.15625,0.625 0.421875,0.84375 0.328125,0.25 0.609375,0.3125 1.328125,0.453125 z m 0,0"
             style="stroke:none;stroke-width:0"
             inkscape:connector-curvature="0" />
          <path
             id="path15570"
             transform="translate(193.58171,157.208)"
             d="m 1.0625,-0.75 c 0,0.4375 -0.109375,0.4375 -0.78125,0.4375 V 0 c 0.328125,-0.015625 0.796875,-0.03125 1.078125,-0.03125 0.3125,0 0.703125,0.015625 1.109375,0.03125 v -0.3125 c -0.671875,0 -0.78125,0 -0.78125,-0.4375 v -1.03125 l 0.640625,-0.546875 c 0.765625,1.046875 1.1875,1.609375 1.1875,1.796875 0,0.1875 -0.171875,0.21875 -0.359375,0.21875 V 0 c 0.265625,-0.015625 0.859375,-0.03125 1.078125,-0.03125 0.28125,0 0.578125,0.015625 0.859375,0.03125 v -0.3125 c -0.375,0 -0.59375,0 -0.96875,-0.53125 L 2.859375,-2.625 c -0.015625,-0.015625 -0.0625,-0.078125 -0.0625,-0.109375 0,-0.03125 0.71875,-0.640625 0.8125,-0.71875 0.625,-0.5 1.046875,-0.53125 1.25,-0.53125 v -0.3125 c -0.28125,0.03125 -0.40625,0.03125 -0.6875,0.03125 -0.359375,0 -0.984375,-0.015625 -1.125,-0.03125 v 0.3125 c 0.1875,0 0.296875,0.109375 0.296875,0.25 0,0.203125 -0.140625,0.3125 -0.21875,0.390625 l -1.40625,1.203125 v -4.78125 L 0.28125,-6.8125 V -6.5 c 0.703125,0 0.78125,0.0625 0.78125,0.5625 z m 0,0"
             style="stroke:none;stroke-width:0"
             inkscape:connector-curvature="0" />
        </g>
        <path
           id="path15574"
           transform="matrix(1,0,0,-1,148.712,145.17)"
           d="M -0.0010625,-0.001875 H 52.303625"
           style="fill:none;stroke:#000000;stroke-width:0.398;stroke-linecap:butt;stroke-linejoin:miter;stroke-miterlimit:10;stroke-opacity:1"
           inkscape:connector-curvature="0" />
        <path
           id="path15576"
           transform="matrix(1,0,0,-1,148.712,162.328)"
           d="M -0.0010625,-1.25e-4 H 52.303625"
           style="fill:none;stroke:#000000;stroke-width:0.398;stroke-linecap:butt;stroke-linejoin:miter;stroke-miterlimit:10;stroke-opacity:1"
           inkscape:connector-curvature="0" />
        <path
           id="path15578"
           transform="matrix(1,0,0,-1,148.712,162.328)"
           d="m -0.0010625,-1.25e-4 v 17.15625"
           style="fill:none;stroke:#000000;stroke-width:0.398;stroke-linecap:butt;stroke-linejoin:miter;stroke-miterlimit:10;stroke-opacity:1"
           inkscape:connector-curvature="0" />
        <path
           id="path15580"
           transform="matrix(1,0,0,-1,201.016,162.328)"
           d="m -3.75e-4,-1.25e-4 v 17.15625"
           style="fill:none;stroke:#000000;stroke-width:0.398;stroke-linecap:butt;stroke-linejoin:miter;stroke-miterlimit:10;stroke-opacity:1"
           inkscape:connector-curvature="0" />
        <g
           id="g15584"
           style="fill:#000000;fill-opacity:1">
          <path
             id="path15582"
             transform="translate(296.387,157.208)"
             d="m 2.578125,-2.875 c 0,-0.03125 0.453125,-1.3125 1.3125,-1.3125 0.046875,0 0.328125,0 0.53125,0.140625 C 4.0625,-3.9375 4.03125,-3.625 4.03125,-3.5625 c 0,0.125 0.09375,0.3125 0.359375,0.3125 0.171875,0 0.484375,-0.140625 0.484375,-0.53125 0,-0.515625 -0.640625,-0.625 -0.984375,-0.625 -0.6875,0 -1.046875,0.5 -1.203125,0.71875 -0.109375,-0.53125 -0.5,-0.71875 -0.828125,-0.71875 -0.359375,0 -0.546875,0.234375 -0.71875,0.53125 -0.1875,0.390625 -0.3125,0.984375 -0.3125,1 0,0.109375 0.09375,0.109375 0.15625,0.109375 0.125,0 0.125,-0.015625 0.1875,-0.234375 0.171875,-0.703125 0.359375,-1.1875 0.671875,-1.1875 0.265625,0 0.265625,0.296875 0.265625,0.40625 0,0.15625 -0.03125,0.34375 -0.078125,0.5 l -0.75,2.984375 c -0.015625,0.0625 -0.03125,0.125 -0.03125,0.140625 0,0.109375 0.078125,0.265625 0.28125,0.265625 0.296875,0 0.375,-0.28125 0.390625,-0.375 z m 0,0"
             style="stroke:none;stroke-width:0"
             inkscape:connector-curvature="0" />
        </g>
        <g
           id="g15598"
           style="fill:#000000;fill-opacity:1">
          <path
             id="path15586"
             transform="translate(300.08014,157.208)"
             d="m 2.375,-2.296875 c 0.3125,0 0.96875,-0.03125 1.453125,-0.21875 0.78125,-0.328125 0.78125,-0.96875 0.78125,-1.046875 0,-0.453125 -0.359375,-0.84375 -1,-0.84375 -1.046875,0 -2.46875,1 -2.46875,2.765625 0,0.90625 0.46875,1.75 1.421875,1.75 1.28125,0 2.109375,-1 2.109375,-1.140625 0,-0.0625 -0.09375,-0.171875 -0.171875,-0.171875 -0.03125,0 -0.046875,0.015625 -0.125,0.109375 -0.734375,0.9375 -1.625,0.984375 -1.796875,0.984375 -0.640625,0 -0.75,-0.703125 -0.75,-1.09375 0,-0.375 0.09375,-0.828125 0.171875,-1.09375 z m -0.328125,-0.21875 c 0.4375,-1.640625 1.46875,-1.671875 1.5625,-1.671875 0.390625,0 0.625,0.265625 0.625,0.609375 0,1.0625 -1.640625,1.0625 -1.96875,1.0625 z m 0,0"
             style="stroke:none;stroke-width:0"
             inkscape:connector-curvature="0" />
          <path
             id="path15588"
             transform="translate(304.66293,157.208)"
             d="m 2.46875,-1.96875 c 0.4375,0.109375 0.875,0.203125 0.875,0.75 0,0.3125 -0.265625,1.109375 -1.296875,1.109375 -0.21875,0 -0.796875,-0.046875 -0.953125,-0.5625 0.515625,-0.046875 0.515625,-0.46875 0.515625,-0.484375 0,-0.1875 -0.140625,-0.3125 -0.34375,-0.3125 -0.234375,0 -0.515625,0.15625 -0.515625,0.609375 0,0.609375 0.578125,0.96875 1.296875,0.96875 1.484375,0 1.875,-1.21875 1.875,-1.671875 0,-0.875 -0.78125,-1.046875 -1.1875,-1.140625 -0.28125,-0.0625 -0.640625,-0.140625 -0.640625,-0.5625 0,-0.25 0.203125,-0.921875 1,-0.921875 0.28125,0 0.640625,0.09375 0.75,0.484375 -0.3125,0.046875 -0.390625,0.3125 -0.390625,0.40625 0,0.109375 0.0625,0.28125 0.296875,0.28125 0.171875,0 0.421875,-0.109375 0.421875,-0.546875 0,-0.453125 -0.40625,-0.84375 -1.0625,-0.84375 -1.171875,0 -1.578125,0.953125 -1.578125,1.46875 0,0.78125 0.65625,0.90625 0.9375,0.96875 z m 0,0"
             style="stroke:none;stroke-width:0"
             inkscape:connector-curvature="0" />
          <path
             id="path15590"
             transform="translate(308.73664,157.208)"
             d="m 2.375,-2.296875 c 0.3125,0 0.96875,-0.03125 1.453125,-0.21875 0.78125,-0.328125 0.78125,-0.96875 0.78125,-1.046875 0,-0.453125 -0.359375,-0.84375 -1,-0.84375 -1.046875,0 -2.46875,1 -2.46875,2.765625 0,0.90625 0.46875,1.75 1.421875,1.75 1.28125,0 2.109375,-1 2.109375,-1.140625 0,-0.0625 -0.09375,-0.171875 -0.171875,-0.171875 -0.03125,0 -0.046875,0.015625 -0.125,0.109375 -0.734375,0.9375 -1.625,0.984375 -1.796875,0.984375 -0.640625,0 -0.75,-0.703125 -0.75,-1.09375 0,-0.375 0.09375,-0.828125 0.171875,-1.09375 z m -0.328125,-0.21875 c 0.4375,-1.640625 1.46875,-1.671875 1.5625,-1.671875 0.390625,0 0.625,0.265625 0.625,0.609375 0,1.0625 -1.640625,1.0625 -1.96875,1.0625 z m 0,0"
             style="stroke:none;stroke-width:0"
             inkscape:connector-curvature="0" />
          <path
             id="path15592"
             transform="translate(313.31943,157.208)"
             d="m 2.578125,-2.875 c 0,-0.03125 0.453125,-1.3125 1.3125,-1.3125 0.046875,0 0.328125,0 0.53125,0.140625 C 4.0625,-3.9375 4.03125,-3.625 4.03125,-3.5625 c 0,0.125 0.09375,0.3125 0.359375,0.3125 0.171875,0 0.484375,-0.140625 0.484375,-0.53125 0,-0.515625 -0.640625,-0.625 -0.984375,-0.625 -0.6875,0 -1.046875,0.5 -1.203125,0.71875 -0.109375,-0.53125 -0.5,-0.71875 -0.828125,-0.71875 -0.359375,0 -0.546875,0.234375 -0.71875,0.53125 -0.1875,0.390625 -0.3125,0.984375 -0.3125,1 0,0.109375 0.09375,0.109375 0.15625,0.109375 0.125,0 0.125,-0.015625 0.1875,-0.234375 0.171875,-0.703125 0.359375,-1.1875 0.671875,-1.1875 0.265625,0 0.265625,0.296875 0.265625,0.40625 0,0.15625 -0.03125,0.34375 -0.078125,0.5 l -0.75,2.984375 c -0.015625,0.0625 -0.03125,0.125 -0.03125,0.140625 0,0.109375 0.078125,0.265625 0.28125,0.265625 0.296875,0 0.375,-0.28125 0.390625,-0.375 z m 0,0"
             style="stroke:none;stroke-width:0"
             inkscape:connector-curvature="0" />
          <path
             id="path15594"
             transform="translate(317.52066,157.208)"
             d="m 4.921875,-3.75 c 0,-0.34375 -0.125,-0.65625 -0.421875,-0.65625 -0.21875,0 -0.46875,0.234375 -0.46875,0.453125 0,0.140625 0.0625,0.203125 0.125,0.28125 0.234375,0.25 0.265625,0.578125 0.265625,0.78125 0,0.28125 -0.46875,2.78125 -1.609375,2.78125 -0.546875,0 -0.65625,-0.5 -0.65625,-0.828125 0,-0.578125 0.328125,-1.4375 0.59375,-2.15625 0.046875,-0.171875 0.109375,-0.3125 0.109375,-0.5 0,-0.5 -0.328125,-0.8125 -0.75,-0.8125 -0.9375,0 -1.28125,1.46875 -1.28125,1.53125 0,0.109375 0.09375,0.109375 0.15625,0.109375 0.125,0 0.125,-0.03125 0.171875,-0.171875 0.078125,-0.296875 0.34375,-1.25 0.921875,-1.25 0.109375,0 0.21875,0.03125 0.21875,0.296875 0,0.234375 -0.09375,0.5 -0.234375,0.890625 -0.3125,0.84375 -0.5,1.4375 -0.5,1.90625 0,0.921875 0.625,1.203125 1.21875,1.203125 1.671875,0 2.140625,-3.59375 2.140625,-3.859375 z m 0,0"
             style="stroke:none;stroke-width:0"
             inkscape:connector-curvature="0" />
          <path
             id="path15596"
             transform="translate(322.10346,157.208)"
             d="m 2.375,-2.296875 c 0.3125,0 0.96875,-0.03125 1.453125,-0.21875 0.78125,-0.328125 0.78125,-0.96875 0.78125,-1.046875 0,-0.453125 -0.359375,-0.84375 -1,-0.84375 -1.046875,0 -2.46875,1 -2.46875,2.765625 0,0.90625 0.46875,1.75 1.421875,1.75 1.28125,0 2.109375,-1 2.109375,-1.140625 0,-0.0625 -0.09375,-0.171875 -0.171875,-0.171875 -0.03125,0 -0.046875,0.015625 -0.125,0.109375 -0.734375,0.9375 -1.625,0.984375 -1.796875,0.984375 -0.640625,0 -0.75,-0.703125 -0.75,-1.09375 0,-0.375 0.09375,-0.828125 0.171875,-1.09375 z m -0.328125,-0.21875 c 0.4375,-1.640625 1.46875,-1.671875 1.5625,-1.671875 0.390625,0 0.625,0.265625 0.625,0.609375 0,1.0625 -1.640625,1.0625 -1.96875,1.0625 z m 0,0"
             style="stroke:none;stroke-width:0"
             inkscape:connector-curvature="0" />
        </g>
        <g
           id="g15602"
           style="fill:#000000;fill-opacity:1">
          <path
             id="path15600"
             transform="translate(326.17816,157.208)"
             d="m 5.546875,-6.671875 c 0.015625,-0.03125 0.03125,-0.109375 0.03125,-0.125 0,-0.09375 -0.0625,-0.125 -0.140625,-0.125 -0.03125,0 -0.125,0.015625 -0.15625,0.03125 L 4.296875,-6.8125 c -0.125,0 -0.234375,0.015625 -0.234375,0.203125 C 4.0625,-6.5 4.171875,-6.5 4.3125,-6.5 c 0.46875,0 0.5,0.0625 0.5,0.171875 0,0.03125 -0.03125,0.15625 -0.03125,0.171875 l -0.578125,2.328125 c -0.15625,-0.3125 -0.421875,-0.578125 -0.84375,-0.578125 -1.109375,0 -2.28125,1.515625 -2.28125,2.96875 0,0.84375 0.453125,1.546875 1.203125,1.546875 0.359375,0 0.796875,-0.203125 1.203125,-0.703125 0.109375,0.5 0.46875,0.703125 0.828125,0.703125 0.359375,0 0.578125,-0.25 0.71875,-0.5625 0.1875,-0.375 0.296875,-0.953125 0.296875,-0.96875 0,-0.109375 -0.078125,-0.109375 -0.140625,-0.109375 -0.125,0 -0.140625,0.015625 -0.1875,0.234375 -0.140625,0.5625 -0.328125,1.1875 -0.671875,1.1875 -0.265625,0 -0.265625,-0.265625 -0.265625,-0.40625 0,-0.078125 0,-0.21875 0.0625,-0.46875 z M 3.53125,-1.21875 C 3.453125,-0.90625 2.84375,-0.109375 2.296875,-0.109375 1.828125,-0.109375 1.75,-0.703125 1.75,-1 1.75,-1.5 2.0625,-2.65625 2.25,-3.078125 2.5,-3.6875 2.953125,-4.1875 3.359375,-4.1875 c 0.078125,0 0.3125,0.015625 0.484375,0.296875 0.109375,0.15625 0.203125,0.4375 0.203125,0.625 0,0.03125 -0.015625,0.078125 -0.03125,0.140625 z m 0,0"
             style="stroke:none;stroke-width:0"
             inkscape:connector-curvature="0" />
        </g>
        <path
           id="path15604"
           transform="matrix(1,0,0,-1,201.016,145.17)"
           d="M -3.75e-4,-0.001875 H 226.64806"
           style="fill:none;stroke:#000000;stroke-width:0.398;stroke-linecap:butt;stroke-linejoin:miter;stroke-miterlimit:10;stroke-opacity:1"
           inkscape:connector-curvature="0" />
        <path
           id="path15606"
           transform="matrix(1,0,0,-1,201.016,162.328)"
           d="M -3.75e-4,-1.25e-4 H 226.64806"
           style="fill:none;stroke:#000000;stroke-width:0.398;stroke-linecap:butt;stroke-linejoin:miter;stroke-miterlimit:10;stroke-opacity:1"
           inkscape:connector-curvature="0" />
        <path
           id="path15608"
           transform="matrix(1,0,0,-1,201.016,162.328)"
           d="m -3.75e-4,-1.25e-4 v 17.15625"
           style="fill:none;stroke:#000000;stroke-width:0.398;stroke-linecap:butt;stroke-linejoin:miter;stroke-miterlimit:10;stroke-opacity:1"
           inkscape:connector-curvature="0" />
        <path
           id="path15610"
           transform="matrix(1,0,0,-1,427.666,162.328)"
           d="m -0.0019375,-1.25e-4 v 17.15625"
           style="fill:none;stroke:#000000;stroke-width:0.398;stroke-linecap:butt;stroke-linejoin:miter;stroke-miterlimit:10;stroke-opacity:1"
           inkscape:connector-curvature="0" />
      </g>
    </g>
  </g>
</svg>
